<?xml version="1.0" encoding="utf-8"?>
<svg xmlns="http://www.w3.org/2000/svg" xmlns:xlink="http://www.w3.org/1999/xlink" style="margin: auto; background: transparent; display: block; shape-rendering: auto;" width="217px" height="217px" viewBox="0 0 100 100" preserveAspectRatio="xMidYMid">
<g transform="rotate(0 50 50)">
  <rect x="48.5" y="30.5" rx="1.4000000000000001" ry="1.4000000000000001" width="3" height="5" fill="#f3b63f">
    <animate attributeName="opacity" values="1;0" keyTimes="0;1" dur="1.1363636363636365s" begin="-1.0926573426573427s" repeatCount="indefinite"></animate>
  </rect>
</g><g transform="rotate(13.846153846153847 50 50)">
  <rect x="48.5" y="30.5" rx="1.4000000000000001" ry="1.4000000000000001" width="3" height="5" fill="#f3b63f">
    <animate attributeName="opacity" values="1;0" keyTimes="0;1" dur="1.1363636363636365s" begin="-1.048951048951049s" repeatCount="indefinite"></animate>
  </rect>
</g><g transform="rotate(27.692307692307693 50 50)">
  <rect x="48.5" y="30.5" rx="1.4000000000000001" ry="1.4000000000000001" width="3" height="5" fill="#f3b63f">
    <animate attributeName="opacity" values="1;0" keyTimes="0;1" dur="1.1363636363636365s" begin="-1.0052447552447552s" repeatCount="indefinite"></animate>
  </rect>
</g><g transform="rotate(41.53846153846154 50 50)">
  <rect x="48.5" y="30.5" rx="1.4000000000000001" ry="1.4000000000000001" width="3" height="5" fill="#f3b63f">
    <animate attributeName="opacity" values="1;0" keyTimes="0;1" dur="1.1363636363636365s" begin="-0.9615384615384616s" repeatCount="indefinite"></animate>
  </rect>
</g><g transform="rotate(55.38461538461539 50 50)">
  <rect x="48.5" y="30.5" rx="1.4000000000000001" ry="1.4000000000000001" width="3" height="5" fill="#f3b63f">
    <animate attributeName="opacity" values="1;0" keyTimes="0;1" dur="1.1363636363636365s" begin="-0.9178321678321679s" repeatCount="indefinite"></animate>
  </rect>
</g><g transform="rotate(69.23076923076923 50 50)">
  <rect x="48.5" y="30.5" rx="1.4000000000000001" ry="1.4000000000000001" width="3" height="5" fill="#f3b63f">
    <animate attributeName="opacity" values="1;0" keyTimes="0;1" dur="1.1363636363636365s" begin="-0.8741258741258742s" repeatCount="indefinite"></animate>
  </rect>
</g><g transform="rotate(83.07692307692308 50 50)">
  <rect x="48.5" y="30.5" rx="1.4000000000000001" ry="1.4000000000000001" width="3" height="5" fill="#f3b63f">
    <animate attributeName="opacity" values="1;0" keyTimes="0;1" dur="1.1363636363636365s" begin="-0.8304195804195804s" repeatCount="indefinite"></animate>
  </rect>
</g><g transform="rotate(96.92307692307692 50 50)">
  <rect x="48.5" y="30.5" rx="1.4000000000000001" ry="1.4000000000000001" width="3" height="5" fill="#f3b63f">
    <animate attributeName="opacity" values="1;0" keyTimes="0;1" dur="1.1363636363636365s" begin="-0.7867132867132868s" repeatCount="indefinite"></animate>
  </rect>
</g><g transform="rotate(110.76923076923077 50 50)">
  <rect x="48.5" y="30.5" rx="1.4000000000000001" ry="1.4000000000000001" width="3" height="5" fill="#f3b63f">
    <animate attributeName="opacity" values="1;0" keyTimes="0;1" dur="1.1363636363636365s" begin="-0.743006993006993s" repeatCount="indefinite"></animate>
  </rect>
</g><g transform="rotate(124.61538461538461 50 50)">
  <rect x="48.5" y="30.5" rx="1.4000000000000001" ry="1.4000000000000001" width="3" height="5" fill="#f3b63f">
    <animate attributeName="opacity" values="1;0" keyTimes="0;1" dur="1.1363636363636365s" begin="-0.6993006993006994s" repeatCount="indefinite"></animate>
  </rect>
</g><g transform="rotate(138.46153846153845 50 50)">
  <rect x="48.5" y="30.5" rx="1.4000000000000001" ry="1.4000000000000001" width="3" height="5" fill="#f3b63f">
    <animate attributeName="opacity" values="1;0" keyTimes="0;1" dur="1.1363636363636365s" begin="-0.6555944055944056s" repeatCount="indefinite"></animate>
  </rect>
</g><g transform="rotate(152.30769230769232 50 50)">
  <rect x="48.5" y="30.5" rx="1.4000000000000001" ry="1.4000000000000001" width="3" height="5" fill="#f3b63f">
    <animate attributeName="opacity" values="1;0" keyTimes="0;1" dur="1.1363636363636365s" begin="-0.6118881118881119s" repeatCount="indefinite"></animate>
  </rect>
</g><g transform="rotate(166.15384615384616 50 50)">
  <rect x="48.5" y="30.5" rx="1.4000000000000001" ry="1.4000000000000001" width="3" height="5" fill="#f3b63f">
    <animate attributeName="opacity" values="1;0" keyTimes="0;1" dur="1.1363636363636365s" begin="-0.5681818181818182s" repeatCount="indefinite"></animate>
  </rect>
</g><g transform="rotate(180 50 50)">
  <rect x="48.5" y="30.5" rx="1.4000000000000001" ry="1.4000000000000001" width="3" height="5" fill="#f3b63f">
    <animate attributeName="opacity" values="1;0" keyTimes="0;1" dur="1.1363636363636365s" begin="-0.5244755244755245s" repeatCount="indefinite"></animate>
  </rect>
</g><g transform="rotate(193.84615384615384 50 50)">
  <rect x="48.5" y="30.5" rx="1.4000000000000001" ry="1.4000000000000001" width="3" height="5" fill="#f3b63f">
    <animate attributeName="opacity" values="1;0" keyTimes="0;1" dur="1.1363636363636365s" begin="-0.4807692307692308s" repeatCount="indefinite"></animate>
  </rect>
</g><g transform="rotate(207.69230769230768 50 50)">
  <rect x="48.5" y="30.5" rx="1.4000000000000001" ry="1.4000000000000001" width="3" height="5" fill="#f3b63f">
    <animate attributeName="opacity" values="1;0" keyTimes="0;1" dur="1.1363636363636365s" begin="-0.4370629370629371s" repeatCount="indefinite"></animate>
  </rect>
</g><g transform="rotate(221.53846153846155 50 50)">
  <rect x="48.5" y="30.5" rx="1.4000000000000001" ry="1.4000000000000001" width="3" height="5" fill="#f3b63f">
    <animate attributeName="opacity" values="1;0" keyTimes="0;1" dur="1.1363636363636365s" begin="-0.3933566433566434s" repeatCount="indefinite"></animate>
  </rect>
</g><g transform="rotate(235.3846153846154 50 50)">
  <rect x="48.5" y="30.5" rx="1.4000000000000001" ry="1.4000000000000001" width="3" height="5" fill="#f3b63f">
    <animate attributeName="opacity" values="1;0" keyTimes="0;1" dur="1.1363636363636365s" begin="-0.3496503496503497s" repeatCount="indefinite"></animate>
  </rect>
</g><g transform="rotate(249.23076923076923 50 50)">
  <rect x="48.5" y="30.5" rx="1.4000000000000001" ry="1.4000000000000001" width="3" height="5" fill="#f3b63f">
    <animate attributeName="opacity" values="1;0" keyTimes="0;1" dur="1.1363636363636365s" begin="-0.30594405594405594s" repeatCount="indefinite"></animate>
  </rect>
</g><g transform="rotate(263.0769230769231 50 50)">
  <rect x="48.5" y="30.5" rx="1.4000000000000001" ry="1.4000000000000001" width="3" height="5" fill="#f3b63f">
    <animate attributeName="opacity" values="1;0" keyTimes="0;1" dur="1.1363636363636365s" begin="-0.26223776223776224s" repeatCount="indefinite"></animate>
  </rect>
</g><g transform="rotate(276.9230769230769 50 50)">
  <rect x="48.5" y="30.5" rx="1.4000000000000001" ry="1.4000000000000001" width="3" height="5" fill="#f3b63f">
    <animate attributeName="opacity" values="1;0" keyTimes="0;1" dur="1.1363636363636365s" begin="-0.21853146853146854s" repeatCount="indefinite"></animate>
  </rect>
</g><g transform="rotate(290.7692307692308 50 50)">
  <rect x="48.5" y="30.5" rx="1.4000000000000001" ry="1.4000000000000001" width="3" height="5" fill="#f3b63f">
    <animate attributeName="opacity" values="1;0" keyTimes="0;1" dur="1.1363636363636365s" begin="-0.17482517482517484s" repeatCount="indefinite"></animate>
  </rect>
</g><g transform="rotate(304.61538461538464 50 50)">
  <rect x="48.5" y="30.5" rx="1.4000000000000001" ry="1.4000000000000001" width="3" height="5" fill="#f3b63f">
    <animate attributeName="opacity" values="1;0" keyTimes="0;1" dur="1.1363636363636365s" begin="-0.13111888111888112s" repeatCount="indefinite"></animate>
  </rect>
</g><g transform="rotate(318.46153846153845 50 50)">
  <rect x="48.5" y="30.5" rx="1.4000000000000001" ry="1.4000000000000001" width="3" height="5" fill="#f3b63f">
    <animate attributeName="opacity" values="1;0" keyTimes="0;1" dur="1.1363636363636365s" begin="-0.08741258741258742s" repeatCount="indefinite"></animate>
  </rect>
</g><g transform="rotate(332.3076923076923 50 50)">
  <rect x="48.5" y="30.5" rx="1.4000000000000001" ry="1.4000000000000001" width="3" height="5" fill="#f3b63f">
    <animate attributeName="opacity" values="1;0" keyTimes="0;1" dur="1.1363636363636365s" begin="-0.04370629370629371s" repeatCount="indefinite"></animate>
  </rect>
</g><g transform="rotate(346.15384615384613 50 50)">
  <rect x="48.5" y="30.5" rx="1.4000000000000001" ry="1.4000000000000001" width="3" height="5" fill="#f3b63f">
    <animate attributeName="opacity" values="1;0" keyTimes="0;1" dur="1.1363636363636365s" begin="0s" repeatCount="indefinite"></animate>
  </rect>
</g>
<!-- [ldio] generated by https://loading.io/ --></svg>